HIERARCHY
ROOT Hips
{
	OFFSET 0.000000 0.000000 0.000000 
	CHANNELS 6 Xposition Yposition Zposition Zrotation Yrotation Xrotation
	JOINT LeftUpLeg
	{
		OFFSET 1.363060 -1.794630 0.839290 
		CHANNELS 3 Zrotation Yrotation Xrotation
		JOINT LeftLeg
		{
			OFFSET 2.448110 -6.726130 0.000000 
			CHANNELS 3 Zrotation Yrotation Xrotation
			JOINT LeftFoot
			{
				OFFSET 2.562200 -7.039590 0.000000 
				CHANNELS 3 Zrotation Yrotation Xrotation
				JOINT LeftToeBase
				{
					OFFSET 0.157640 -0.433110 2.322550 
					CHANNELS 3 Zrotation Yrotation Xrotation
					End Site
					{
						OFFSET 0.000000 0.000000 0.000000 
					}
				}
			}
		}
	}
	JOINT RightUpLeg
	{
		OFFSET -1.305520 -1.794630 0.839290 
		CHANNELS 3 Zrotation Yrotation Xrotation
		JOINT RightLeg
		{
			OFFSET -2.542530 -6.985550 0.000000 
			CHANNELS 3 Zrotation Yrotation Xrotation
			JOINT RightFoot
			{
				OFFSET -2.568260 -7.056230 0.000000 
				CHANNELS 3 Zrotation Yrotation Xrotation
				JOINT RightToeBase
				{
					OFFSET -0.164730 -0.452590 2.363150 
					CHANNELS 3 Zrotation Yrotation Xrotation
					End Site
					{
						OFFSET 0.000000 0.000000 0.000000 
					}
				}
			}
		}
	}
	JOINT Spine
	{
		OFFSET 0.028270 2.035590 -0.193380 
		CHANNELS 3 Zrotation Yrotation Xrotation
		JOINT Spine1
		{
			OFFSET 0.056720 2.048850 -0.042750 
			CHANNELS 3 Zrotation Yrotation Xrotation
			JOINT Neck1
			{
				OFFSET -0.054170 1.746240 0.172020 
				CHANNELS 3 Zrotation Yrotation Xrotation
				JOINT Head
				{
					OFFSET 0.104070 1.761360 -0.123970 
					CHANNELS 3 Zrotation Yrotation Xrotation
					End Site
					{
						OFFSET 0.000000 0.000000 0.000000 
					}
				}
			}
			JOINT LeftArm
			{
				OFFSET 3.362410 1.200890 -0.311210 
				CHANNELS 3 Zrotation Yrotation Xrotation
				JOINT LeftForeArm
				{
					OFFSET 4.983000 -0.000000 -0.000000 
					CHANNELS 3 Zrotation Yrotation Xrotation
					JOINT LeftHand
					{
						OFFSET 3.483560 -0.000000 -0.000000 
						CHANNELS 3 Zrotation Yrotation Xrotation
						JOINT LeftHandIndex1
						{
							OFFSET 0.715260 -0.000000 -0.000000 
							CHANNELS 3 Zrotation Yrotation Xrotation
							End Site
							{
								OFFSET 0.000000 0.000000 0.000000 
							}
						}
					}
				}
			}
			JOINT RightArm
			{
				OFFSET -3.136600 1.374050 -0.404650 
				CHANNELS 3 Zrotation Yrotation Xrotation
				JOINT RightForeArm
				{
					OFFSET -5.241900 -0.000000 -0.000000 
					CHANNELS 3 Zrotation Yrotation Xrotation
					JOINT RightHand
					{
						OFFSET -3.444170 -0.000000 -0.000000 
						CHANNELS 3 Zrotation Yrotation Xrotation
						JOINT RightHandIndex1
						{
							OFFSET -0.622530 -0.000000 -0.000000 
							CHANNELS 3 Zrotation Yrotation Xrotation
							End Site
							{
								OFFSET 0.000000 0.000000 0.000000 
							}
						}
					}
				}
			}
		}
	}
}
MOTION
Frames: 12
Frame Time: 0.041667
11.973140 14.429210 17.509355 -15.717311 15.490619 122.436212 42.974054 -22.893284 -47.997507 -30.955325 -20.500403 26.306480 15.276370 41.957825 95.067399 0.394800 4.034400 11.173400 0.342700 52.632662 -36.816727 -8.715478 32.470070 38.800088 -28.752858 -10.495090 72.569558 -0.910300 -6.079700 17.016000 22.551016 20.169918 -25.062986 -2.780455 -13.477964 3.422442 3.823568 4.197976 5.354279 0.986500 2.850000 5.230400 4.108302 16.329971 20.303385 9.463105 -0.165764 -12.114600 -11.392568 -0.360496 -27.769404 -7.125000 0.000000 0.000000 -45.692767 1.494861 -62.000208 -15.091644 13.365603 -4.365917 2.479982 0.571208 -13.253840 7.125000 0.000000 0.000000 
11.955000 14.438426 17.551926 -10.964509 19.307705 123.923071 51.871131 -19.622410 -41.333518 -34.989968 -25.347215 17.762078 14.755321 42.903595 97.108195 0.350900 3.806200 10.532000 7.950903 45.686860 -38.048958 -12.503645 29.987992 38.297239 -27.330030 -10.221168 70.262280 -0.911300 -6.083000 17.025600 34.792165 0.214366 -32.159762 -0.939762 1.881963 6.274194 3.652185 4.321562 4.070632 0.871600 2.768600 5.127500 -5.887806 11.844071 30.012836 7.562391 -7.819628 -13.940785 -8.933479 0.726077 -29.692024 -7.125000 0.000000 0.000000 -44.107651 4.117399 -61.236901 -11.753275 21.812981 -4.128115 2.995040 0.669959 -11.404044 7.125000 0.000000 0.000000 
11.936129 14.448374 17.592594 -3.557111 21.595632 124.322006 55.982696 -18.214066 -38.903762 -39.008834 -29.186038 12.076740 13.260268 43.771018 97.751031 0.238800 3.145000 8.682800 11.864414 39.765027 -38.553461 -15.360326 28.905078 37.267081 -26.518423 -9.765222 69.009964 -0.927800 -6.136300 17.180300 41.866605 -12.776587 -37.646432 -1.697779 8.577162 8.539742 4.099017 4.127608 4.095649 0.719000 2.660600 5.058600 -8.406451 5.616554 27.205086 9.465846 -13.025417 -15.368893 -6.631546 0.637671 -30.971956 -7.125000 0.000000 0.000000 -39.103886 1.297113 -62.581021 -7.247682 22.318537 -3.914616 3.588496 0.610619 -9.891450 7.125000 0.000000 0.000000 
11.916087 14.458176 17.629313 4.982385 17.935904 120.802580 53.651965 -20.163233 -40.028069 -41.601548 -31.347672 9.449775 11.566102 44.504667 97.593527 0.139600 2.408200 6.635200 11.335758 36.497313 -37.960957 -16.690982 28.110401 36.162995 -26.232610 -9.193117 68.472796 -0.967100 -6.261200 17.544300 30.649080 -23.880897 -23.922498 -7.598015 9.086003 13.874554 3.624943 3.581538 6.772755 0.546700 2.533900 5.028000 -3.995210 13.045810 19.650610 13.858491 -13.209535 -15.938998 -5.236726 -0.553001 -31.285587 -7.125000 0.000000 0.000000 -37.997890 0.520205 -66.815872 -8.843832 13.905060 -3.768569 3.695477 0.319681 -8.736325 7.125000 0.000000 0.000000 
11.894728 14.467392 17.660473 14.901842 10.958934 118.223874 44.717444 -24.096245 -46.237489 -43.085545 -29.428937 10.791619 10.837779 44.408748 95.219099 0.071600 1.726600 4.750600 4.990499 36.752195 -38.056116 -17.250552 27.396494 34.621874 -26.759858 -8.497147 69.199416 -1.001600 -6.368600 17.857800 19.083414 -16.442995 -7.479232 6.230885 -12.340275 -5.160409 -0.211918 2.807568 10.104812 0.384000 2.383100 5.027300 1.877204 -6.074397 3.288433 55.740107 -33.003687 -16.574582 -4.245313 -2.125347 -31.304909 -7.125000 0.000000 0.000000 -97.075288 -5.067750 -67.132878 -31.140558 45.351088 -3.735171 3.604776 -1.052748 -8.038002 7.125000 0.000000 0.000000 
11.872053 14.475730 17.688415 20.784576 3.478923 114.476619 32.813123 -21.252003 -55.425587 -44.997142 -24.749534 12.951988 9.180000 42.828398 90.285798 0.036000 1.224500 3.366700 -5.085772 40.425792 -35.281555 -15.524840 28.792054 35.294189 -27.654680 -7.740302 71.985888 -0.987200 -6.324100 17.727600 -3.140084 9.798060 3.107618 22.289693 -11.294257 -18.469936 4.901962 2.797612 10.879968 0.246300 2.225400 5.063000 -3.395267 -38.919033 -5.490528 99.232590 -50.045266 -18.363155 -1.578268 -0.587513 -32.498129 -7.125000 0.000000 0.000000 -84.857632 -36.421151 -62.436850 -34.190266 63.430137 -3.500186 3.770788 0.506208 -7.138142 7.125000 0.000000 0.000000 
11.847916 14.483045 17.712699 14.900751 -3.856261 113.749269 27.021056 -15.822372 -59.660315 -46.483207 -22.013442 12.397882 7.308503 41.703307 87.329035 0.021100 0.938900 2.580600 -11.346883 44.942057 -32.805997 -11.919138 31.260852 37.512826 -27.704134 -7.014563 73.953282 -0.976400 -6.290300 17.629000 -22.101349 48.820310 0.508433 15.425153 -22.131787 -16.599519 4.819792 3.079295 9.087681 0.152600 2.077500 5.130300 2.869921 -25.426641 12.188338 30.606484 -33.637702 -20.940802 -1.330615 1.284770 -34.090210 -7.125000 0.000000 0.000000 -62.946772 -6.016542 -63.633581 4.733341 43.739243 -3.256818 5.368978 1.436521 -6.332320 7.125000 0.000000 0.000000 
11.822315 14.489043 17.733618 6.768478 8.084303 120.253196 28.705953 -10.033956 -58.325479 -47.937691 -20.916093 10.003499 6.533124 40.493237 84.382984 0.023400 0.988300 2.716500 -12.233127 47.756780 -34.070992 -9.995233 33.182861 38.053409 -27.881682 -6.234274 75.413375 -0.968000 -6.263900 17.552100 -6.501169 81.713115 -50.299502 -20.942582 -36.908806 -2.714262 4.403988 3.236892 7.004753 0.093700 1.958100 5.216200 -11.175862 3.749373 9.773258 3.339528 -7.707419 -20.022929 -5.425538 -3.006572 -31.588147 -7.125000 0.000000 0.000000 -17.732209 1.389465 -64.226964 5.645739 -0.844798 -3.076252 6.912002 0.634164 -5.696511 7.125000 0.000000 0.000000 
11.795544 14.493578 17.750734 14.935223 -3.527911 108.361528 17.760432 -3.408293 -51.090090 -46.843090 -22.642475 5.344941 7.151773 39.378847 79.966527 0.028600 1.091400 3.000300 -15.660256 48.996775 -26.760703 -7.911989 33.414894 38.112021 -28.084879 -5.432445 76.917811 -0.964400 -6.252800 17.519600 136.216113 86.134872 -172.295756 -1.374855 -39.227008 -32.641449 6.795032 2.906122 1.361473 0.064300 1.854000 5.335700 -9.637659 3.389944 10.899963 10.987707 -17.429374 -21.508650 -4.653998 -2.265067 -31.324478 -7.125000 0.000000 0.000000 -30.553951 10.483660 -71.623822 -15.061460 19.551178 -2.964695 6.361893 0.423480 -4.956388 7.125000 0.000000 0.000000 
11.767163 14.496504 17.763900 14.757009 -4.374346 107.733494 16.490725 -0.697903 -47.692702 -44.636256 -23.649545 -0.347787 9.259903 39.221628 73.439020 0.037800 1.254500 3.449300 -18.974162 50.007845 -26.050263 -4.996260 34.922105 37.217108 -28.471775 -4.789096 78.872207 -0.963200 -6.249100 17.508800 -24.387176 50.910163 29.798433 -3.590824 -32.785661 -14.796060 9.363073 1.713684 -0.147352 0.057300 1.752700 5.492600 9.292827 2.851872 22.758209 9.294253 -11.912927 -22.943394 -5.273127 -1.579619 -30.901766 -7.125000 0.000000 0.000000 -21.523855 -13.657597 -75.845748 4.389959 2.536134 -2.819334 7.086222 0.052109 -3.948194 7.125000 0.000000 0.000000 
11.737613 14.497674 17.772239 15.603113 -4.758347 112.943210 12.705529 1.816266 -43.776744 -39.467148 -22.133056 -2.598611 12.726947 38.662025 64.137739 0.047700 1.409300 3.875800 -23.021876 49.254380 -26.412037 -2.650391 37.228314 36.902209 -28.208723 -4.493641 81.363682 -0.965300 -6.255600 17.527900 -55.163176 18.093936 -20.252638 3.096211 -17.012900 8.700656 10.151834 1.069830 0.776088 0.024500 1.589600 5.764400 16.710300 2.124474 15.855031 15.186823 -10.967368 -23.903492 -1.720555 -0.720528 -29.835858 -7.125000 0.000000 0.000000 -5.575483 -27.532852 -86.272525 -8.177462 30.509200 -2.748255 7.934434 0.129385 -3.069013 7.125000 0.000000 0.000000 
11.706745 14.497089 17.774872 22.942910 -5.594240 120.217222 7.023444 0.606642 -40.801340 -33.198761 -17.550820 -0.927412 14.612140 36.764530 56.583601 0.057500 1.547100 4.255500 -26.484696 44.848793 -26.372434 -1.443835 39.285019 36.149489 -27.486640 -4.582399 83.556319 -0.969100 -6.267500 17.562600 -55.596288 4.997753 -57.754448 17.893178 7.152739 12.726988 7.187145 0.549721 6.337249 -0.051600 1.370500 6.130300 0.200614 -2.849985 15.038025 21.882331 -26.018959 -23.173061 -0.247605 -1.549352 -27.353562 -7.125000 0.000000 0.000000 -46.519699 11.531733 -92.444563 -20.698242 44.493810 -2.745150 5.923909 -0.797887 -2.646237 7.125000 0.000000 0.000000 
